<?xml version="1.0" encoding="UTF-8"?>
<!DOCTYPE svg PUBLIC "-//W3C//DTD SVG 1.1//EN" "http://www.w3.org/Graphics/SVG/1.1/DTD/svg11.dtd">
<!-- Creator: CorelDRAW 2020 (64-Bit) -->
<svg xmlns="http://www.w3.org/2000/svg" xml:space="preserve" width="102.999mm" height="114.126mm" version="1.1" style="shape-rendering:geometricPrecision; text-rendering:geometricPrecision; image-rendering:optimizeQuality; fill-rule:evenodd; clip-rule:evenodd"
viewBox="0 0 171140.3 189628.7"
 xmlns:xlink="http://www.w3.org/1999/xlink"
 xmlns:xodm="http://www.corel.com/coreldraw/odm/2003">
 <defs>
  <style type="text/css">
   <![CDATA[
    .fil0 {fill:#16A085}
    .fil1 {fill:black;fill-rule:nonzero}
   ]]>
  </style>
 </defs>
 <g id="Слой_x0020_1">
  <metadata id="CorelCorpID_0Corel-Layer"/>
  <path class="fil0" d="M111758.9 137615.9c-4508.2,2590.7 -2980.5,8794.2 -2460.6,10475.1 83.7,251.2 -46.2,519.9 -291.6,612.3 -1695.3,701.9 -3422.5,1328.4 -5181.3,1871.4 -245.4,75.1 -511.1,-37.6 -612.3,-283 -701.7,-1628.8 -3546.5,-7350.2 -8681.4,-6457.7 -5135.1,901.1 -5831.1,7243.3 -5929.3,9016.6 -8.6,259.9 -228.1,464.9 -488,482.2 -1833.9,83.9 -3676.6,83.9 -5510.5,0 -259.9,-8.6 -464.9,-213.7 -488.2,-482.2 -98,-1773.2 -794.1,-8115.5 -5929.2,-9016.6 -5126.3,-895.3 -7976.7,4837.5 -8672.8,6457.7 -106.8,245.4 -375.5,358.1 -618.1,283 -1750.1,-543 -3485.8,-1160.9 -5181.1,-1871.4 -245.6,-98.2 -375.5,-358.1 -291.8,-612.3 511.3,-1689.5 2047.7,-7887.3 -2460.6,-10475.1 -4517,-2581.9 -9169.6,1842.7 -10385.5,3133.6 -184.8,190.7 -482.2,205 -687.4,55 -1458.4,-1109.1 -2873.5,-2284.5 -4225.2,-3506.3 -190.6,-184.8 -213.7,-464.9 -60.6,-678.6 1068.6,-1412.3 4661.4,-6723.4 1299.7,-10683 -3347.3,-3950.9 -9238.9,-1383.4 -10827.3,-580.6 -236.9,115.5 -519.9,37.6 -664.3,-184.8 -993.5,-1536.5 -1909,-3110.5 -2752.4,-4736.5 -129.9,-222.3 -46.2,-505.5 167.7,-649.8 1498.9,-961.7 6685.9,-4745.1 4912.6,-9605.8 -1787.9,-4860.6 -8213.7,-4433.1 -9978.4,-4225.2 -259.9,37.6 -505.3,-138.6 -557.3,-389.8 -398.6,-1779.1 -724.9,-3575.6 -955.9,-5380.5 -37.6,-259.9 138.6,-496.8 389.8,-557.5 1741.5,-398.4 7924.9,-2186.3 7924.9,-7350.2 0,-5163.9 -6180.6,-6954.4 -7924.9,-7358.8 -251.2,-54.8 -427.4,-297.4 -389.8,-551.6 236.8,-1802.1 557.3,-3598.5 955.9,-5386.2 54.8,-251.2 297.4,-413.1 557.3,-389.8 1764.8,222.3 8190.6,635.2 9972.6,-4225.4 1781.9,-4860.6 -3407.9,-8626.6 -4906.8,-9591.3 -222.5,-144.4 -297.6,-427.4 -167.7,-658.5 840.4,-1611.4 1758.9,-3194.1 2752.4,-4730.5 138.6,-228.3 427.4,-297.6 664.3,-184.9 1588.5,802.9 7480.1,3370.3 10827.3,-589.2 3347.3,-3950.9 -222.3,-9267.8 -1299.7,-10674.3 -153,-213.7 -129.9,-505.3 60.6,-678.6 1351.7,-1239 2758.2,-2405.8 4225.2,-3506.1 205.2,-167.7 496.8,-138.7 672.9,54.8 1221.8,1290.9 5877.3,5701 10391.3,3124.9 4514,-2576.3 2980.5,-8794.2 2460.6,-10475.1 -83.7,-251.2 46.2,-511.3 291.6,-612.3 1695.3,-701.9 3422.5,-1328.4 5181.3,-1871.4 245.4,-75.1 511.1,46.2 612.3,283 701.7,1628.8 3546.5,7350.2 8681.6,6457.7 5134.9,-901.1 5831,-7243.3 5929.2,-9016.6 14.5,-259.9 228.1,-459.1 488,-482.2 1833.9,-83.9 3676.6,-83.9 5510.5,0 259.9,14.3 482.4,213.7 488.2,482.2 98.2,1773.2 794.1,8115.5 5929.2,9016.6 5126.3,895.4 7976.7,-4828.9 8681.6,-6457.7 98,-236.8 366.7,-358.1 612.1,-283 1758.9,543 3486,1160.9 5181.3,1871.4 245.4,98.2 375.4,358.1 291.6,612.3 -511.1,1689.5 -2047.6,7901.8 2460.6,10475.1 4508.4,2573.3 9169.8,-1834.1 10391.3,-3124.9 167.5,-190.6 464.9,-222.5 672.9,-60.6 1458.4,1108.9 2873.5,2284.5 4225.2,3514.7 190.6,167.5 222.3,459.3 60.6,664.3 -1068.6,1412.2 -4646.9,6723.4 -1299.7,10683 3347.3,3959.5 9239,1392.1 10827.5,589.2 236.8,-115.5 519.7,-46.2 658.3,184.8 993.6,1536.5 1909.2,3110.5 2752.4,4730.7 129.9,222.3 54.8,511.3 -167.5,658.5 -1490.3,955.9 -6685.9,4736.5 -4906.8,9591.3 1779.1,4854.8 8207.9,4438.9 9972.5,4225.2 259.9,-37.6 505.5,138.6 557.5,390 398.4,1773.2 724.8,3569.6 955.9,5380.4 37.6,260 -138.6,505.5 -390,557.5 -1741.5,404.3 -7924.7,2192.1 -7924.7,7358.8 0,5166.7 6180.4,6960.2 7924.7,7350.2 251.4,54.8 427.5,297.4 390,557.5 -236.8,1802.1 -557.5,3598.5 -955.9,5380.4 -55,251.2 -297.6,427.5 -557.5,390 -1764.6,-205 -8190.6,-635.4 -9972.5,4225.2 -1782,4860.6 3407.9,8635.4 4906.8,9605.8 222.3,138.6 297.4,427.4 167.5,649.8 -840.4,1611.4 -1758.8,3194.1 -2752.4,4736.3 -138.6,222.5 -427.4,291.8 -658.3,176.1 -1588.5,-794.1 -7480.3,-3370.3 -10827.5,589.2 -3347.3,3959.5 222.5,9267.8 1299.7,10683 153,205.2 129.9,496.8 -60.6,678.8 -1351.7,1221.6 -2758.1,2400 -4225.2,3506.1 -205,153 -496.8,138.7 -672.9,-60.6 -1221.6,-1290.9 -5877.2,-5701 -10391.3,-3124.9l5.8 0zm-11869.3 -44016c-12.1,106.3 -14.6,204.9 -26.6,311 -897.8,7934.7 -8117.8,13640.2 -16130.1,12733.7 -106.2,-12 -203.7,-23.1 -309.9,-35.1 -1462.2,-203.2 -2789.1,169.6 -3934.3,1069.1l-16778.6 13250.4c-1596.3,1263.8 -2394,3074.6 -2230,5092.7 164,2018.3 1236.9,3685.9 3008.1,4676.7 5060.5,2848.4 10767,4741 16911,5436.2 24427.5,2763.7 46459.9,-14638.7 49201.2,-38868 689.1,-6089.7 99,-12024.5 -1565.2,-17557.9 -589,-1935.6 -1982.1,-3340.1 -3927,-3952.4 -1945,-612.6 -3901.4,-249.6 -5498,1017.2l-16773 13250.9c-1149,907.6 -1799.3,2110 -1940.7,3564.6l-7 10.8zm-12898.5 -15701.1c106.2,12 212.3,23.9 309.9,35.1 1462.2,203.2 2792.8,-151.9 3934.3,-1069.2l16778.6 -13250.3c1596.3,-1264 2393,-3065.9 2230,-5092.7 -164.2,-2018.3 -1236.9,-3685.9 -3008.1,-4676.8 -5062.2,-2834 -10767,-4740.8 -16902.6,-5435 -24433.2,-2764.4 -46465.5,14637.8 -49206.8,38867.1 -689.1,6089.9 -99,12024.7 1566.2,17549.4 588.9,1935.6 1980.4,3354.4 3927,3952.6 1945,612.3 3900.7,255.2 5496,-1000.1l16778.6 -13250.3c1150.1,-916.4 1799.5,-2110 1935.7,-3571.2 12,-106.2 14.5,-204.7 26.4,-310.9 898.7,-7943.5 8118.5,-13645.9 16130.8,-12739.3l4 -8.3zm-760.5 6721.1c-4267.4,-482.9 -8109.8,2549.9 -8589.4,6788.4 -479.7,4238.7 2589.1,8044.7 6856.5,8527.6 4267.4,482.7 8109.8,-2550 8588.5,-6780.1 478.5,-4230 -2588.2,-8053 -6855.7,-8535.9z"/>
  <path class="fil1" d="M32677.1 17914.8c437.5,-343.9 933.8,-551.6 1488.8,-623.4 555.1,-71.4 1124.7,-15 1709.1,169 584.4,184.3 1163.8,484.8 1738.3,902.1 574.4,417.2 1106.4,937.3 1596.3,1560.4l5735.9 7298.8c468.9,596.7 838.9,1217.4 1109.8,1862.6 271,644.9 427,1273.1 467.6,1884.4 40.9,611.3 -39,1178.2 -239.8,1700.5 -200.9,522.4 -526.6,960.7 -977.3,1315.1l-4355.5 3422.9c-464.1,364.6 -973.7,582.7 -1528.7,654.3 -555,71.6 -1121.4,12.6 -1699.1,-176.8 -577.7,-189.3 -1151.3,-489.3 -1720.6,-899.7 -569.3,-410.6 -1088.2,-914.2 -1557.1,-1510.9l-5736.1 -7298.8c-489.7,-623.3 -869.3,-1263.1 -1138.8,-1920 -269.7,-656.8 -424.7,-1290.9 -465.6,-1902.3 -40.7,-611.1 39.4,-1178.1 239.9,-1700.5 200.7,-522.4 526.6,-960.6 977.3,-1314.8l4355.5 -3422.9zm4867.4 15895.5l-4323.1 -13074.1 -2247.3 1766.1c-225.3,177.1 -372.4,399.6 -440.3,667.6 -68.1,268 -79.3,561.1 -33.4,878.6 46,317.9 150.5,648.7 313.4,992.5 163,343.8 369.4,674.8 619.6,993l6111.1 7776.4zm2972.1 752.5l2148.1 -1688c212,-166.7 358.9,-389.3 440.2,-667.6 81.4,-278.5 99.2,-576.7 53.3,-894.4 -46,-317.7 -144.6,-647.7 -295.8,-990.1 -150.9,-342.5 -351.6,-672.8 -601.7,-991l-6048.6 -7696.8 4304.5 12927.9zm24883.5 -27356.1l818.8 2420.1 -6876.4 2326.5c-287.6,97.4 -513.8,218.2 -678.3,363.1 -164.8,144.6 -266.7,330.5 -305.6,557.3 -38.9,226.8 -25.6,515.9 39.9,867.7 65.6,351.8 184.9,782.9 357.9,1294.2l1888.9 5582.7c416.1,1229.9 930.8,1883.6 1544.4,1960.8 298.8,41.2 1159.1,-178.6 2580.8,-659.6 255.6,-86.4 585.5,-202.5 990.3,-348.3 404.6,-145.9 918.4,-324.2 1541.3,-534.9l2491.9 -843.1 802.5 2372.1 -8122.5 2748.1c-702.8,237.8 -1335.6,354.1 -1898.2,348.4 -562.6,-5.3 -1069.9,-149.7 -1521.8,-433 -451.6,-283.3 -861.5,-718.6 -1229.6,-1306.3 -368,-587.5 -711.3,-1352.5 -1030.2,-2295l-1799.7 -5319.2c-313.5,-926.5 -502.5,-1734.7 -566.8,-2425.2 -64.5,-690.1 -3.2,-1285.1 183.8,-1784.5 187.1,-499.3 502.5,-922 946.1,-1268 443.8,-346.1 1017.1,-637.9 1719.9,-875.8l8122.5 -2748.1zm20914.8 -7107.2l-130.3 5158.5 5107.9 128.9c775.3,19.6 1426.6,116.3 1953.7,289.8 526.9,173.8 954.1,458.6 1281.4,854.9 327.3,396.1 558.8,916.5 694.4,1560.9 135.4,644.5 191.1,1447.1 166.8,2408l-283.1 11202 -3919.3 -99.2 276 -10923.7c13.8,-539.5 -0.2,-986.6 -42,-1342.2 -41.5,-355.2 -118.8,-635.4 -231.6,-840.6 -113,-205.4 -265.2,-352.6 -456.9,-441.8 -191.9,-89.2 -431,-137.2 -717.5,-144.6l-3894.2 -98.4 -345.1 13654.5 -3944.6 -99.7 540 -21367.1 3944.6 99.7zm34010.7 12493.6c721.6,284.6 1301.7,594.8 1740.2,930.8 438.5,336.1 745.1,742.4 919.5,1219.1 174.8,476.7 213.3,1045 116.6,1704.6 -97,659.5 -324.8,1444.2 -683.6,2354.1l-4110.2 10424.6 -9177.4 -3618.6c-501.8,-197.9 -914.4,-496.5 -1237.4,-895.6 -322.8,-399.3 -555.3,-867.2 -697.4,-1403.4 -141.9,-536.5 -182.4,-1123.2 -121.5,-1760.9 61.1,-637.4 224.6,-1293.5 490.7,-1968.1 259.7,-658.8 586.4,-1246 979.8,-1761.4 393.8,-515.6 828.5,-928.8 1304.5,-1239.5 476,-310.7 969.7,-505.8 1481.5,-585 511.6,-79.4 1018.4,-19.9 1520.3,178l5529.9 2180.5 510.3 -1294.4c309.2,-784.3 410.6,-1351.5 304.1,-1701.8 -106.7,-350.3 -418.9,-627.4 -936.6,-831.5l-5623.9 -2217.4 937.1 -2376.9 6753.5 2662.8zm-5818.5 6896c-486.3,-191.7 -901.7,-310.4 -1246.5,-355.6 -344.8,-45.4 -642.9,-13.1 -894.3,96 -251.7,109.2 -468.4,291.3 -650.3,545.8 -181.9,254.4 -353.3,585.7 -514.1,993.6 -674.3,1709.9 -697.5,2688.6 -70.1,2936l4424 1744.2 1892.7 -4800.3 -2941.3 -1159.8zm30794.7 10126.2c549.2,523.7 963.7,1023.7 1243.5,1500.1 279.6,476.5 407.8,965.4 383.8,1467 -23.8,501.5 -204.9,1039.5 -543,1614.1 -338,574.7 -844.6,1215.9 -1519.5,1923.8l-7732.2 8110.3 -2800.9 -2670.5 7540.1 -7908.8c372.4,-390.6 662.3,-731.4 870.2,-1022.9 207.7,-291.1 335.5,-553.5 383.7,-787.3 48.2,-233.8 31.1,-448.1 -51.2,-643 -82.1,-194.7 -220.8,-385.2 -416.2,-571.4l-2819.4 -2687.9 -9425.1 9886.2 -2837.6 -2705.4 11188.1 -11735.4 6535.8 6231.1z"/>
  <path class="fil1" d="M17644.5 129759.3l-12542.4 8040.4c-340.8,218.5 -641,461.1 -900.7,727.6 -259.7,266.8 -465.7,539 -618.1,817 -152.2,278 -240.3,554.6 -263.9,830.3 -23.8,275.5 41.9,533.9 196.6,775.3l1173.9 1831.2c145.7,227.1 348.6,387.6 608.8,481 260.4,93.5 548.7,129.3 864.7,106.8 316.2,-22.4 649.5,-96 1000.3,-220.7 350.8,-124.6 696.5,-296.3 1037.3,-514.6l12542.4 -8040.5 2047.6 3194.1 -12542.4 8040.5c-653.2,418.7 -1313.6,731.9 -1981.4,939.8 -668.1,207.9 -1302.3,304.1 -1903.2,288.6 -600.8,-15.5 -1151.6,-148 -1652.3,-398.1 -500.6,-249.7 -914.9,-630.2 -1242.5,-1141.3l-2948.6 -4599.4c-327.7,-511.3 -500.5,-1046.5 -518.4,-1605.6 -18.1,-559.5 91.2,-1115.3 328,-1667.7 236.9,-552.3 591.4,-1085 1063.6,-1598.3 472.4,-512.9 1035,-978.8 1688.2,-1397.6l12542.4 -8040.4 2020.3 3151.5zm15146.3 18823.5l-2914.9 3057.3 3679.7 3508.3 -1762.8 1849 -3679.7 -3508.3 -6091.7 6389.3c-384,402.8 -668.3,731.6 -853.2,986.5 -184.6,254.9 -259.2,504.1 -223.5,747.9 35.6,243.8 179,508.6 430.3,794.7 251.4,286.3 627.2,667.8 1127.7,1145l-1728 1812.4 -1904 -1815.3c-610.1,-581.7 -1066.9,-1104.6 -1370.3,-1568.5 -303.2,-464.1 -460.1,-922.3 -471.1,-1375.5 -10.8,-452.8 129.9,-924.5 422.4,-1414.5 292.6,-490 735.4,-1046.1 1328.8,-1668.7l6458.2 -6773.8 -2727.8 -2600.5 1762.9 -1849 2727.6 2600.7 2914.9 -3057.5 2874.4 2740.4zm17637.7 11222.8l-1563.5 2718.8 -4012.7 -2307.3 1563.4 -2719 4012.9 2307.4zm-2879.2 4296.7l-6833.9 11884.8 3815.5 2193.9 -1248.3 2170.9 -11095.5 -6380 1248.3 -2170.9 3881.3 2231.7 5560.3 -9670.1 -3881.1 -2231.8 1273.4 -2214.6 7280 4186zm19936.1 1883.1l-4243.3 18386.2 4387.1 1012.6 -563.3 2440 -12495.7 -2884 563.1 -2440 4288.5 989.8 3668.9 -15897 -4288.5 -989.8 574.6 -2489.2 8108.7 1871.4zm19786.7 2055.4l79.3 3135.4 -4627.3 117 -79.3 -3135.4 4627.3 -117zm-223.6 5167.3l346.4 13705.2 4399.7 -111.2 63.3 2503.3 -12795 323.3 -63.1 -2503.3 4475.6 -113.2 -281.8 -11151.2 -4475.6 113 -64.6 -2553.8 8395.1 -212.2zm18764.9 -6915.3l1154 4063.6 4890.9 -1388.9 697.9 2457.5 -4890.7 1388.9 2411.4 8492c152,535.4 290.9,947.3 416.6,1235.9 125.9,288.5 302.7,479.4 530.9,572.2 228,93.2 529,104 903.2,32.9 374.2,-71.3 893.8,-201.4 1558.9,-390.1l684.1 2408.8 -2530.6 718.6c-811,230.3 -1493.4,358.4 -2047.1,384.2 -553.6,25.8 -1028.2,-71.8 -1424.1,-292.4 -395.6,-220.7 -730.4,-581.4 -1004.1,-1082.2 -273.7,-500.6 -527.9,-1164.6 -762.8,-1991.9l-2556.7 -9003.1 -3625.6 1029.5 -697.9 -2457.5 3625.6 -1029.5 -1154 -4063.6 3820.1 -1084.8zm18728.5 -8942.1l1563.4 2719 -4012.7 2307.3 -1563.4 -2718.8 4012.7 -2307.4zm2265.2 4649.8l6833.9 11884.8 3815.3 -2193.8 1248.3 2170.9 -11095.5 6380 -1248.2 -2170.9 3881.3 -2231.8 -5560.5 -9670.1 -3881.3 2231.7 -1273.4 -2214.6 7280 -4186.2zm17454.2 -13636.2c768.8,-733.1 1643.8,-1037.3 2624.8,-912.5 981,124.8 2047.6,791.4 3199.5,1999.7 1151.8,1208.3 1767.6,2275.5 1846.8,3201.9 79.3,926.2 -295.9,1784.9 -1125.9,2576.1l-4229 4032 994.8 1043.6c418.9,439.2 777.8,772.8 1076.5,1000.6 298.6,227.8 569.9,359.4 813.5,395.1 243.6,35.7 480.5,-15.5 710.3,-153.2 230,-137.4 485.2,-340.1 765.8,-607.6l4283.9 -4084.3 1728 1812.4 -5565.5 5306.1c-536.9,511.9 -1058.6,881.1 -1565,1107.6 -506.3,226.5 -1024,306.6 -1553.2,240.3 -529.2,-66.3 -1084.5,-288.3 -1665.9,-666 -581.4,-377.7 -1215.3,-926.5 -1901.8,-1646.6l-3874.8 -4064.2c-674.9,-707.8 -1187,-1361.2 -1536.6,-1959.8 -349.4,-598.8 -544.8,-1163.9 -585.7,-1695.8 -41,-531.7 63.8,-1045.1 314,-1540.1 250.4,-495 644,-998.4 1181.1,-1510.4l4064.4 -3874.8zm710.3 9212.8l3075.7 -2932.4c195.2,-186.1 345.6,-364.4 451.1,-534.7 105.3,-170.5 142.6,-357.6 111.8,-560.9 -31.1,-203.5 -135.8,-435.5 -314.5,-696.4 -178.6,-260.5 -448.1,-580.2 -808.9,-958.6 -349.1,-366.2 -640.7,-641.4 -875,-826 -234.1,-184.4 -443.1,-293.9 -627.4,-328.2 -183.9,-34.1 -360.6,0.5 -530,103.7 -169.5,103.4 -364.1,259.7 -583.9,469.2l-1958.8 1867.6c-219.7,209.4 -373.7,414.6 -461.9,615.1 -88.2,200.6 -105.3,414.9 -51.2,642.9 54.3,227.8 185.3,481.5 393.5,760.8 207.9,279.1 492.3,608.1 853.1,986.5l1326.4 1391.2zm13302.3 -28129.2l2150.7 1378.8 -4190.8 6537.3c-236.6,369.2 -300.2,734.1 -190.9,1094.5 109.3,360.6 462.3,732.1 1058.4,1114.4 1079,691.5 1868.6,647 2369.2,-133.9l2880.3 -4493.1c309.4,-482.7 685.4,-842.6 1127.9,-1079.7 442.5,-237.1 919.5,-372 1431.1,-404.6 511.6,-32.6 1048.5,36.2 1610.4,206.2 562.1,170 1119.9,432.5 1673.5,787.4 1377.1,882.8 2277,1830.2 2699.9,2842.3 422.7,1012.1 301.9,2036.4 -362.6,3072.8l-5105.4 7964.1 -2108.2 -1351.5 4655.1 -7261.4c181.9,-283.8 185.6,-602 11,-954.2 -174.8,-352.4 -560.1,-719.8 -1156.5,-1102 -596.2,-382.2 -1083.8,-574.7 -1462.9,-577.2 -378.8,-2.5 -659.3,138.2 -841.3,422l-2989.7 4663.6c-327.7,510.9 -717.3,892.3 -1168.9,1143.5 -451.5,251.6 -941.5,383.2 -1469.8,394.8 -528.4,11.8 -1085.3,-79.9 -1671.4,-275.2 -585.9,-195.4 -1169.8,-479.5 -1751.8,-852.7 -1249.3,-800.9 -2052.4,-1696.1 -2409.3,-2686.3 -356.9,-989.8 -175.8,-2045.6 543.2,-3167.1l4668.5 -7282.7z"/>
 </g>
</svg>
